<svg xmlns="http://www.w3.org/2000/svg" width="1920" height="750"><path d="M-11,928L-186,928L138,933Z" fill="#8c8896" stroke="#8c8896" stroke-width="1.51"/><path d="M742,-224L1163,-191L1306,-194Z" fill="#a8d2c9" stroke="#a8d2c9" stroke-width="1.51"/><path d="M782,920L424,936L1327,954Z" fill="#416e97" stroke="#416e97" stroke-width="1.51"/><path d="M997,904L782,920L1327,954Z" fill="#31679a" stroke="#31679a" stroke-width="1.51"/><path d="M1327,954L424,936L1487,969Z" fill="#2c6395" stroke="#2c6395" stroke-width="1.51"/><path d="M1306,-194L1788,-185L1970,-209Z" fill="#9ca1b9" stroke="#9ca1b9" stroke-width="1.51"/><path d="M742,-224L1306,-194L1970,-209Z" fill="#a1bfc7" stroke="#a1bfc7" stroke-width="1.51"/><path d="M1649,962L1487,969L1975,967Z" fill="#1a3681" stroke="#1a3681" stroke-width="1.51"/><path d="M1801,935L1649,962L1975,967Z" fill="#1b3180" stroke="#1b3180" stroke-width="1.51"/><path d="M1938,269L1944,455L2153,283Z" fill="#41719f" stroke="#41719f" stroke-width="1.51"/><path d="M2153,283L1944,455L2160,449Z" fill="#326898" stroke="#326898" stroke-width="1.51"/><path d="M1944,455L1948,614L2160,449Z" fill="#285f9e" stroke="#285f9e" stroke-width="1.51"/><path d="M742,-224L1970,-209L2161,-208Z" fill="#9da6bd" stroke="#9da6bd" stroke-width="1.51"/><path d="M1970,-209L2139,-70L2161,-208Z" fill="#8d889a" stroke="#8d889a" stroke-width="1.51"/><path d="M2132,817L2122,930L2170,662Z" fill="#1a2f7d" stroke="#1a2f7d" stroke-width="1.51"/><path d="M1988,709L2132,817L2170,662Z" fill="#1c3b86" stroke="#1c3b86" stroke-width="1.51"/><path d="M2160,449L1948,614L2170,662Z" fill="#205292" stroke="#205292" stroke-width="1.51"/><path d="M1948,614L1988,709L2170,662Z" fill="#204791" stroke="#204791" stroke-width="1.51"/><path d="M2020,13L1913,119L2174,93Z" fill="#788298" stroke="#788298" stroke-width="1.51"/><path d="M1938,269L2153,283L2174,93Z" fill="#547594" stroke="#547594" stroke-width="1.51"/><path d="M1913,119L1938,269L2174,93Z" fill="#667d9b" stroke="#667d9b" stroke-width="1.51"/><path d="M2139,-70L2020,13L2174,93Z" fill="#7c8190" stroke="#7c8190" stroke-width="1.51"/><path d="M2161,-208L2139,-70L2174,93Z" fill="#82828b" stroke="#82828b" stroke-width="1.51"/><path d="M2153,283L2160,449L2174,93Z" fill="#456e8e" stroke="#456e8e" stroke-width="1.51"/><path d="M2160,449L2170,662L2174,93Z" fill="#2d648f" stroke="#2d648f" stroke-width="1.51"/><path d="M1975,967L2122,930L2132,817Z" fill="#172874" stroke="#172874" stroke-width="1.51"/><path d="M1970,-209L2020,13L2139,-70Z" fill="#8d8896" stroke="#8d8896" stroke-width="1.51"/><path d="M1988,709L1975,967L2132,817Z" fill="#1e3086" stroke="#1e3086" stroke-width="1.51"/><path d="M1802,741L1801,935L1975,967Z" fill="#21338d" stroke="#21338d" stroke-width="1.51"/><path d="M1802,741L1975,967L1988,709Z" fill="#243793" stroke="#243793" stroke-width="1.51"/><path d="M1761,36L1913,119L2020,13Z" fill="#8489a6" stroke="#8489a6" stroke-width="1.51"/><path d="M1970,-209L1788,-185L2020,13Z" fill="#968fa7" stroke="#968fa7" stroke-width="1.51"/><path d="M1788,-185L1761,36L2020,13Z" fill="#9291a7" stroke="#9291a7" stroke-width="1.51"/><path d="M1306,-194L1607,-124L1788,-185Z" fill="#9caab9" stroke="#9caab9" stroke-width="1.51"/><path d="M1938,269L1848,443L1944,455Z" fill="#3c71aa" stroke="#3c71aa" stroke-width="1.51"/><path d="M1944,455L1853,570L1948,614Z" fill="#2a5fa6" stroke="#2a5fa6" stroke-width="1.51"/><path d="M1948,614L1802,741L1988,709Z" fill="#25489b" stroke="#25489b" stroke-width="1.51"/><path d="M1776,251L1848,443L1938,269Z" fill="#4a7aac" stroke="#4a7aac" stroke-width="1.51"/><path d="M1913,119L1766,188L1938,269Z" fill="#6581a9" stroke="#6581a9" stroke-width="1.51"/><path d="M1766,188L1776,251L1938,269Z" fill="#5a81ab" stroke="#5a81ab" stroke-width="1.51"/><path d="M1848,443L1853,570L1944,455Z" fill="#3267ab" stroke="#3267ab" stroke-width="1.51"/><path d="M1853,570L1802,741L1948,614Z" fill="#2752a2" stroke="#2752a2" stroke-width="1.51"/><path d="M1761,36L1766,188L1913,119Z" fill="#788caa" stroke="#788caa" stroke-width="1.51"/><path d="M742,-224L1031,-179L1163,-191Z" fill="#aad8c9" stroke="#aad8c9" stroke-width="1.51"/><path d="M1306,-194L1448,-122L1607,-124Z" fill="#9db4bb" stroke="#9db4bb" stroke-width="1.51"/><path d="M1679,-4L1761,36L1788,-185Z" fill="#9399ab" stroke="#9399ab" stroke-width="1.51"/><path d="M1660,452L1693,593L1848,443Z" fill="#2e70b0" stroke="#2e70b0" stroke-width="1.51"/><path d="M1776,251L1684,354L1848,443Z" fill="#437eb0" stroke="#437eb0" stroke-width="1.51"/><path d="M1848,443L1693,593L1853,570Z" fill="#2a68ad" stroke="#2a68ad" stroke-width="1.51"/><path d="M1693,593L1802,741L1853,570Z" fill="#2758a6" stroke="#2758a6" stroke-width="1.51"/><path d="M1630,768L1801,935L1802,741Z" fill="#26429a" stroke="#26429a" stroke-width="1.51"/><path d="M1684,354L1660,452L1848,443Z" fill="#377ab1" stroke="#377ab1" stroke-width="1.51"/><path d="M1761,36L1709,199L1766,188Z" fill="#728eac" stroke="#728eac" stroke-width="1.51"/><path d="M1607,-124L1679,-4L1788,-185Z" fill="#999fae" stroke="#999fae" stroke-width="1.51"/><path d="M1630,768L1649,962L1801,935Z" fill="#213e91" stroke="#213e91" stroke-width="1.51"/><path d="M1693,593L1630,768L1802,741Z" fill="#2554a3" stroke="#2554a3" stroke-width="1.51"/><path d="M1679,-4L1709,199L1761,36Z" fill="#8196ac" stroke="#8196ac" stroke-width="1.51"/><path d="M1766,188L1709,199L1776,251Z" fill="#5f88ad" stroke="#5f88ad" stroke-width="1.51"/><path d="M1709,199L1684,354L1776,251Z" fill="#5386af" stroke="#5386af" stroke-width="1.51"/><path d="M1452,90L1544,288L1709,199Z" fill="#6397b3" stroke="#6397b3" stroke-width="1.51"/><path d="M1679,-4L1532,-13L1709,199Z" fill="#849cae" stroke="#849cae" stroke-width="1.51"/><path d="M1532,-13L1452,90L1709,199Z" fill="#7da0b1" stroke="#7da0b1" stroke-width="1.51"/><path d="M1544,288L1684,354L1709,199Z" fill="#508bb2" stroke="#508bb2" stroke-width="1.51"/><path d="M1630,768L1514,799L1649,962Z" fill="#25489d" stroke="#25489d" stroke-width="1.51"/><path d="M1553,411L1660,452L1684,354Z" fill="#3682b4" stroke="#3682b4" stroke-width="1.51"/><path d="M1660,452L1498,555L1693,593Z" fill="#2474b3" stroke="#2474b3" stroke-width="1.51"/><path d="M1498,555L1630,768L1693,593Z" fill="#2363ab" stroke="#2363ab" stroke-width="1.51"/><path d="M1607,-124L1532,-13L1679,-4Z" fill="#93a3af" stroke="#93a3af" stroke-width="1.51"/><path d="M1544,288L1553,411L1684,354Z" fill="#3f8ab5" stroke="#3f8ab5" stroke-width="1.51"/><path d="M1498,555L1514,799L1630,768Z" fill="#245da8" stroke="#245da8" stroke-width="1.51"/><path d="M1514,799L1487,969L1649,962Z" fill="#204691" stroke="#204691" stroke-width="1.51"/><path d="M1553,411L1498,555L1660,452Z" fill="#2b7fb6" stroke="#2b7fb6" stroke-width="1.51"/><path d="M1498,555L1395,639L1514,799Z" fill="#236aae" stroke="#236aae" stroke-width="1.51"/><path d="M1395,639L1390,722L1514,799Z" fill="#2565ab" stroke="#2565ab" stroke-width="1.51"/><path d="M1448,-122L1532,-13L1607,-124Z" fill="#99abb1" stroke="#99abb1" stroke-width="1.51"/><path d="M1452,90L1393,119L1544,288Z" fill="#6ba2b6" stroke="#6ba2b6" stroke-width="1.51"/><path d="M1393,119L1378,333L1544,288Z" fill="#559eb9" stroke="#559eb9" stroke-width="1.51"/><path d="M1324,451L1498,555L1553,411Z" fill="#2a88ba" stroke="#2a88ba" stroke-width="1.51"/><path d="M1378,333L1324,451L1553,411Z" fill="#3394bc" stroke="#3394bc" stroke-width="1.51"/><path d="M1544,288L1378,333L1553,411Z" fill="#4093b9" stroke="#4093b9" stroke-width="1.51"/><path d="M1327,954L1487,969L1514,799Z" fill="#224e96" stroke="#224e96" stroke-width="1.51"/><path d="M1343,-11L1452,90L1532,-13Z" fill="#8baeb5" stroke="#8baeb5" stroke-width="1.51"/><path d="M1448,-122L1343,-11L1532,-13Z" fill="#95b2b5" stroke="#95b2b5" stroke-width="1.51"/><path d="M1390,722L1327,954L1514,799Z" fill="#2959a6" stroke="#2959a6" stroke-width="1.51"/><path d="M1324,451L1395,639L1498,555Z" fill="#2282ba" stroke="#2282ba" stroke-width="1.51"/><path d="M883,902L782,920L997,904Z" fill="#3f709e" stroke="#3f709e" stroke-width="1.51"/><path d="M1242,873L1327,954L1390,722Z" fill="#2a5ea6" stroke="#2a5ea6" stroke-width="1.51"/><path d="M1343,-11L1393,119L1452,90Z" fill="#86b0b7" stroke="#86b0b7" stroke-width="1.51"/><path d="M1306,-194L1343,-11L1448,-122Z" fill="#9cbbba" stroke="#9cbbba" stroke-width="1.51"/><path d="M1208,98L1181,343L1378,333Z" fill="#53adbf" stroke="#53adbf" stroke-width="1.51"/><path d="M1200,732L1242,873L1390,722Z" fill="#296bae" stroke="#296bae" stroke-width="1.51"/><path d="M1208,98L1378,333L1393,119Z" fill="#67adbb" stroke="#67adbb" stroke-width="1.51"/><path d="M1343,-11L1208,98L1393,119Z" fill="#85b7ba" stroke="#85b7ba" stroke-width="1.51"/><path d="M1324,451L1204,609L1395,639Z" fill="#2088bc" stroke="#2088bc" stroke-width="1.51"/><path d="M1200,732L1390,722L1395,639Z" fill="#2471b1" stroke="#2471b1" stroke-width="1.51"/><path d="M1204,609L1200,732L1395,639Z" fill="#237bb6" stroke="#237bb6" stroke-width="1.51"/><path d="M1306,-194L1171,-55L1343,-11Z" fill="#9cc2ba" stroke="#9cc2ba" stroke-width="1.51"/><path d="M1220,421L1324,451L1378,333Z" fill="#319dc0" stroke="#319dc0" stroke-width="1.51"/><path d="M1181,343L1220,421L1378,333Z" fill="#36a4c2" stroke="#36a4c2" stroke-width="1.51"/><path d="M1220,421L1204,609L1324,451Z" fill="#2596c1" stroke="#2596c1" stroke-width="1.51"/><path d="M1242,873L997,904L1327,954Z" fill="#2a609c" stroke="#2a609c" stroke-width="1.51"/><path d="M1171,-55L1208,98L1343,-11Z" fill="#90c0bb" stroke="#90c0bb" stroke-width="1.51"/><path d="M1163,-191L1171,-55L1306,-194Z" fill="#a1c8c2" stroke="#a1c8c2" stroke-width="1.51"/><path d="M206,-219L407,-180L742,-224Z" fill="#d5eec3" stroke="#d5eec3" stroke-width="1.51"/><path d="M1049,285L1181,343L1208,98Z" fill="#5ab5bf" stroke="#5ab5bf" stroke-width="1.51"/><path d="M1021,182L1049,285L1208,98Z" fill="#6abcbe" stroke="#6abcbe" stroke-width="1.51"/><path d="M991,448L1204,609L1220,421Z" fill="#2d9dc2" stroke="#2d9dc2" stroke-width="1.51"/><path d="M1200,732L1012,809L1242,873Z" fill="#336eae" stroke="#336eae" stroke-width="1.51"/><path d="M1012,809L997,904L1242,873Z" fill="#356ba7" stroke="#356ba7" stroke-width="1.51"/><path d="M991,448L1067,654L1204,609Z" fill="#2d95be" stroke="#2d95be" stroke-width="1.51"/><path d="M1067,654L1200,732L1204,609Z" fill="#2c81b7" stroke="#2c81b7" stroke-width="1.51"/><path d="M1181,343L991,448L1220,421Z" fill="#37a8c3" stroke="#37a8c3" stroke-width="1.51"/><path d="M1171,-55L1021,-64L1208,98Z" fill="#95c8bc" stroke="#95c8bc" stroke-width="1.51"/><path d="M1021,-64L1021,182L1208,98Z" fill="#8ac7bc" stroke="#8ac7bc" stroke-width="1.51"/><path d="M1067,654L1012,809L1200,732Z" fill="#337bb2" stroke="#337bb2" stroke-width="1.51"/><path d="M1163,-191L1031,-179L1171,-55Z" fill="#a3cec1" stroke="#a3cec1" stroke-width="1.51"/><path d="M1031,-179L1021,-64L1171,-55Z" fill="#a3cfbc" stroke="#a3cfbc" stroke-width="1.51"/><path d="M1049,285L991,448L1181,343Z" fill="#41b0c3" stroke="#41b0c3" stroke-width="1.51"/><path d="M872,-24L854,149L1021,182Z" fill="#8acdbd" stroke="#8acdbd" stroke-width="1.51"/><path d="M872,-24L1021,182L1021,-64Z" fill="#94d0bc" stroke="#94d0bc" stroke-width="1.51"/><path d="M871,345L991,448L1049,285Z" fill="#45b6c4" stroke="#45b6c4" stroke-width="1.51"/><path d="M871,606L1012,809L1067,654Z" fill="#3687b6" stroke="#3687b6" stroke-width="1.51"/><path d="M991,448L871,606L1067,654Z" fill="#349cbf" stroke="#349cbf" stroke-width="1.51"/><path d="M871,606L829,765L1012,809Z" fill="#4285b3" stroke="#4285b3" stroke-width="1.51"/><path d="M742,-224L850,-120L1031,-179Z" fill="#afdcc5" stroke="#afdcc5" stroke-width="1.51"/><path d="M1021,182L871,345L1049,285Z" fill="#59bcc1" stroke="#59bcc1" stroke-width="1.51"/><path d="M860,467L871,606L991,448Z" fill="#3ea8c2" stroke="#3ea8c2" stroke-width="1.51"/><path d="M854,149L871,345L1021,182Z" fill="#68c2bf" stroke="#68c2bf" stroke-width="1.51"/><path d="M850,-120L1021,-64L1031,-179Z" fill="#a7d7bf" stroke="#a7d7bf" stroke-width="1.51"/><path d="M883,902L997,904L1012,809Z" fill="#3b71a6" stroke="#3b71a6" stroke-width="1.51"/><path d="M850,-120L872,-24L1021,-64Z" fill="#a6d7bb" stroke="#a6d7bb" stroke-width="1.51"/><path d="M829,765L883,902L1012,809Z" fill="#4477ad" stroke="#4477ad" stroke-width="1.51"/><path d="M871,345L860,467L991,448Z" fill="#45b2c3" stroke="#45b2c3" stroke-width="1.51"/><path d="M521,880L424,936L782,920Z" fill="#5f7a99" stroke="#5f7a99" stroke-width="1.51"/><path d="M706,-18L704,136L854,149Z" fill="#99d5ba" stroke="#99d5ba" stroke-width="1.51"/><path d="M773,740L829,765L871,606Z" fill="#4a8bb4" stroke="#4a8bb4" stroke-width="1.51"/><path d="M860,467L692,580L871,606Z" fill="#4aa5bf" stroke="#4aa5bf" stroke-width="1.51"/><path d="M736,424L860,467L871,345Z" fill="#50b6c2" stroke="#50b6c2" stroke-width="1.51"/><path d="M779,316L736,424L871,345Z" fill="#58bdc1" stroke="#58bdc1" stroke-width="1.51"/><path d="M854,149L779,316L871,345Z" fill="#67c2bf" stroke="#67c2bf" stroke-width="1.51"/><path d="M706,-18L854,149L872,-24Z" fill="#9ed6ba" stroke="#9ed6ba" stroke-width="1.51"/><path d="M829,765L782,920L883,902Z" fill="#4a76a6" stroke="#4a76a6" stroke-width="1.51"/><path d="M704,136L779,316L854,149Z" fill="#7acabd" stroke="#7acabd" stroke-width="1.51"/><path d="M736,424L692,580L860,467Z" fill="#51afc0" stroke="#51afc0" stroke-width="1.51"/><path d="M692,580L773,740L871,606Z" fill="#4e96b8" stroke="#4e96b8" stroke-width="1.51"/><path d="M850,-120L706,-18L872,-24Z" fill="#abdbba" stroke="#abdbba" stroke-width="1.51"/><path d="M773,740L782,920L829,765Z" fill="#507dac" stroke="#507dac" stroke-width="1.51"/><path d="M742,-224L706,-18L850,-120Z" fill="#b4debc" stroke="#b4debc" stroke-width="1.51"/><path d="M628,-141L706,-18L742,-224Z" fill="#b9e2bc" stroke="#b9e2bc" stroke-width="1.51"/><path d="M407,-180L628,-141L742,-224Z" fill="#c5e7c2" stroke="#c5e7c2" stroke-width="1.51"/><path d="M692,580L623,723L773,740Z" fill="#5793b3" stroke="#5793b3" stroke-width="1.51"/><path d="M616,294L736,424L779,316Z" fill="#64c1c0" stroke="#64c1c0" stroke-width="1.51"/><path d="M704,136L616,294L779,316Z" fill="#77c9bd" stroke="#77c9bd" stroke-width="1.51"/><path d="M773,740L623,723L782,920Z" fill="#5682ad" stroke="#5682ad" stroke-width="1.51"/><path d="M623,723L521,880L782,920Z" fill="#5f7ea9" stroke="#5f7ea9" stroke-width="1.51"/><path d="M556,414L692,580L736,424Z" fill="#5db5bf" stroke="#5db5bf" stroke-width="1.51"/><path d="M616,294L556,414L736,424Z" fill="#67c1c0" stroke="#67c1c0" stroke-width="1.51"/><path d="M556,414L545,552L692,580Z" fill="#64b2be" stroke="#64b2be" stroke-width="1.51"/><path d="M515,164L616,294L704,136Z" fill="#8ad0ba" stroke="#8ad0ba" stroke-width="1.51"/><path d="M561,-64L515,164L704,136Z" fill="#a8dcb8" stroke="#a8dcb8" stroke-width="1.51"/><path d="M561,-64L704,136L706,-18Z" fill="#abddb7" stroke="#abddb7" stroke-width="1.51"/><path d="M628,-141L561,-64L706,-18Z" fill="#bae2b6" stroke="#bae2b6" stroke-width="1.51"/><path d="M545,552L623,723L692,580Z" fill="#60a1b7" stroke="#60a1b7" stroke-width="1.51"/><path d="M424,740L521,880L623,723Z" fill="#6e8bac" stroke="#6e8bac" stroke-width="1.51"/><path d="M545,552L426,614L623,723Z" fill="#6da2b6" stroke="#6da2b6" stroke-width="1.51"/><path d="M426,614L424,740L623,723Z" fill="#7199b1" stroke="#7199b1" stroke-width="1.51"/><path d="M407,-180L561,-64L628,-141Z" fill="#c9e9ba" stroke="#c9e9ba" stroke-width="1.51"/><path d="M387,302L556,414L616,294Z" fill="#7ecabd" stroke="#7ecabd" stroke-width="1.51"/><path d="M515,164L387,302L616,294Z" fill="#8dd1bb" stroke="#8dd1bb" stroke-width="1.51"/><path d="M383,-28L399,165L515,164Z" fill="#b6e2b6" stroke="#b6e2b6" stroke-width="1.51"/><path d="M387,302L434,463L556,414Z" fill="#7fc8be" stroke="#7fc8be" stroke-width="1.51"/><path d="M434,463L545,552L556,414Z" fill="#73bbbd" stroke="#73bbbd" stroke-width="1.51"/><path d="M383,-28L515,164L561,-64Z" fill="#bce4b5" stroke="#bce4b5" stroke-width="1.51"/><path d="M407,-180L383,-28L561,-64Z" fill="#cfebb4" stroke="#cfebb4" stroke-width="1.51"/><path d="M399,165L387,302L515,164Z" fill="#9dd7b9" stroke="#9dd7b9" stroke-width="1.51"/><path d="M434,463L426,614L545,552Z" fill="#76b4bb" stroke="#76b4bb" stroke-width="1.51"/><path d="M424,740L424,936L521,880Z" fill="#7584a5" stroke="#7584a5" stroke-width="1.51"/><path d="M256,297L234,485L387,302Z" fill="#95d1bc" stroke="#95d1bc" stroke-width="1.51"/><path d="M383,-28L251,10L399,165Z" fill="#c9eab4" stroke="#c9eab4" stroke-width="1.51"/><path d="M251,10L256,154L399,165Z" fill="#c0e6b5" stroke="#c0e6b5" stroke-width="1.51"/><path d="M214,881L138,933L424,936Z" fill="#7f8497" stroke="#7f8497" stroke-width="1.51"/><path d="M424,740L275,741L424,936Z" fill="#808da9" stroke="#808da9" stroke-width="1.51"/><path d="M275,741L214,881L424,936Z" fill="#8489a4" stroke="#8489a4" stroke-width="1.51"/><path d="M275,741L424,740L426,614Z" fill="#809daf" stroke="#809daf" stroke-width="1.51"/><path d="M387,302L234,485L434,463Z" fill="#8cc9bc" stroke="#8cc9bc" stroke-width="1.51"/><path d="M234,485L270,551L434,463Z" fill="#8ac0bc" stroke="#8ac0bc" stroke-width="1.51"/><path d="M270,551L426,614L434,463Z" fill="#82b8bb" stroke="#82b8bb" stroke-width="1.51"/><path d="M270,551L275,741L426,614Z" fill="#86a9b4" stroke="#86a9b4" stroke-width="1.51"/><path d="M206,-219L251,10L383,-28Z" fill="#ddf1b2" stroke="#ddf1b2" stroke-width="1.51"/><path d="M256,297L387,302L399,165Z" fill="#9fd8b9" stroke="#9fd8b9" stroke-width="1.51"/><path d="M256,154L256,297L399,165Z" fill="#abddb7" stroke="#abddb7" stroke-width="1.51"/><path d="M206,-219L383,-28L407,-180Z" fill="#def2b9" stroke="#def2b9" stroke-width="1.51"/><path d="M-230,-172L-72,-121L206,-219Z" fill="#f4fbc0" stroke="#f4fbc0" stroke-width="1.51"/><path d="M206,-219L52,-114L251,10Z" fill="#e6f5b4" stroke="#e6f5b4" stroke-width="1.51"/><path d="M251,10L157,143L256,154Z" fill="#c7e8b5" stroke="#c7e8b5" stroke-width="1.51"/><path d="M117,413L234,485L256,297Z" fill="#98cfbc" stroke="#98cfbc" stroke-width="1.51"/><path d="M124,310L117,413L256,297Z" fill="#a1d6bb" stroke="#a1d6bb" stroke-width="1.51"/><path d="M256,154L157,143L256,297Z" fill="#b2e0b7" stroke="#b2e0b7" stroke-width="1.51"/><path d="M157,143L124,310L256,297Z" fill="#acdcb8" stroke="#acdcb8" stroke-width="1.51"/><path d="M270,551L55,643L275,741Z" fill="#8eaab3" stroke="#8eaab3" stroke-width="1.51"/><path d="M55,643L103,764L275,741Z" fill="#91a0ae" stroke="#91a0ae" stroke-width="1.51"/><path d="M103,764L214,881L275,741Z" fill="#8d93a9" stroke="#8d93a9" stroke-width="1.51"/><path d="M234,485L55,643L270,551Z" fill="#91bab9" stroke="#91bab9" stroke-width="1.51"/><path d="M52,-114L51,40L251,10Z" fill="#dff2b2" stroke="#dff2b2" stroke-width="1.51"/><path d="M51,40L157,143L251,10Z" fill="#d3edb3" stroke="#d3edb3" stroke-width="1.51"/><path d="M-72,-121L52,-114L206,-219Z" fill="#eff9b9" stroke="#eff9b9" stroke-width="1.51"/><path d="M117,413L55,643L234,485Z" fill="#96c3bb" stroke="#96c3bb" stroke-width="1.51"/><path d="M103,764L138,933L214,881Z" fill="#8d8ca2" stroke="#8d8ca2" stroke-width="1.51"/><path d="M-94,465L55,643L117,413Z" fill="#9ec5bb" stroke="#9ec5bb" stroke-width="1.51"/><path d="M103,764L-11,928L138,933Z" fill="#8f8c9f" stroke="#8f8c9f" stroke-width="1.51"/><path d="M-34,119L124,310L157,143Z" fill="#bde3b6" stroke="#bde3b6" stroke-width="1.51"/><path d="M51,40L-34,119L157,143Z" fill="#d2edb4" stroke="#d2edb4" stroke-width="1.51"/><path d="M-34,119L-65,346L124,310Z" fill="#b5dfb9" stroke="#b5dfb9" stroke-width="1.51"/><path d="M-75,805L-11,928L103,764Z" fill="#9791a8" stroke="#9791a8" stroke-width="1.51"/><path d="M-65,346L117,413L124,310Z" fill="#a6d8bb" stroke="#a6d8bb" stroke-width="1.51"/><path d="M55,643L1,658L103,764Z" fill="#97a6af" stroke="#97a6af" stroke-width="1.51"/><path d="M-65,346L-94,465L117,413Z" fill="#a5d3be" stroke="#a5d3be" stroke-width="1.51"/><path d="M-94,465L1,658L55,643Z" fill="#9cb8b9" stroke="#9cb8b9" stroke-width="1.51"/><path d="M1,658L-75,805L103,764Z" fill="#989fad" stroke="#989fad" stroke-width="1.51"/><path d="M-84,-4L51,40L52,-114Z" fill="#e6f6b3" stroke="#e6f6b3" stroke-width="1.51"/><path d="M-72,-121L-84,-4L52,-114Z" fill="#eef8b5" stroke="#eef8b5" stroke-width="1.51"/><path d="M-84,-4L-34,119L51,40Z" fill="#ddf2b6" stroke="#ddf2b6" stroke-width="1.51"/><path d="M-202,161L-221,286L-65,346Z" fill="#b9e1c4" stroke="#b9e1c4" stroke-width="1.51"/><path d="M-202,161L-65,346L-34,119Z" fill="#c0e5bf" stroke="#c0e5bf" stroke-width="1.51"/><path d="M-94,465L-250,568L1,658Z" fill="#9fbec1" stroke="#9fbec1" stroke-width="1.51"/><path d="M-250,568L-224,729L1,658Z" fill="#9dafbd" stroke="#9dafbd" stroke-width="1.51"/><path d="M-224,729L-75,805L1,658Z" fill="#9ba2b4" stroke="#9ba2b4" stroke-width="1.51"/><path d="M-75,805L-186,928L-11,928Z" fill="#938da3" stroke="#938da3" stroke-width="1.51"/><path d="M-84,-4L-202,161L-34,119Z" fill="#d8f0bc" stroke="#d8f0bc" stroke-width="1.51"/><path d="M-218,466L-250,568L-94,465Z" fill="#a4c9c8" stroke="#a4c9c8" stroke-width="1.51"/><path d="M-255,20L-202,161L-84,-4Z" fill="#e1f4c0" stroke="#e1f4c0" stroke-width="1.51"/><path d="M-230,-172L-255,20L-84,-4Z" fill="#eff9bf" stroke="#eff9bf" stroke-width="1.51"/><path d="M-230,-172L-84,-4L-72,-121Z" fill="#f2fabc" stroke="#f2fabc" stroke-width="1.51"/><path d="M-218,466L-94,465L-65,346Z" fill="#a6d2c5" stroke="#a6d2c5" stroke-width="1.51"/><path d="M-221,286L-218,466L-65,346Z" fill="#acd9c8" stroke="#acd9c8" stroke-width="1.51"/><path d="M-224,729L-186,928L-75,805Z" fill="#9b94b2" stroke="#9b94b2" stroke-width="1.51"/><path d="M-255,20L-221,286L-202,161Z" fill="#ceecc5" stroke="#ceecc5" stroke-width="1.51"/><path d="M-221,286L-250,568L-218,466Z" fill="#a8d1cb" stroke="#a8d1cb" stroke-width="1.51"/><path d="M-255,20L-250,568L-221,286Z" fill="#b8e0ca" stroke="#b8e0ca" stroke-width="1.51"/></svg>